<?xml version="1.0" encoding="UTF-8" standalone="no"?>
<svg
   class="svglite"
   width="267.4711pt"
   height="200.98851pt"
   viewBox="0 0 267.4711 200.98851"
   version="1.1"
   id="svg3745"
   sodipodi:docname="figure3.svg"
   inkscape:version="1.1 (c4e8f9e, 2021-05-24)"
   xmlns:inkscape="http://www.inkscape.org/namespaces/inkscape"
   xmlns:sodipodi="http://sodipodi.sourceforge.net/DTD/sodipodi-0.dtd"
   xmlns="http://www.w3.org/2000/svg"
   xmlns:svg="http://www.w3.org/2000/svg">
  <sodipodi:namedview
     id="namedview3747"
     pagecolor="#505050"
     bordercolor="#eeeeee"
     borderopacity="1"
     inkscape:pageshadow="0"
     inkscape:pageopacity="0"
     inkscape:pagecheckerboard="0"
     inkscape:document-units="pt"
     showgrid="false"
     inkscape:zoom="2.4072913"
     inkscape:cx="143.3146"
     inkscape:cy="146.43014"
     inkscape:window-width="3440"
     inkscape:window-height="1387"
     inkscape:window-x="0"
     inkscape:window-y="25"
     inkscape:window-maximized="1"
     inkscape:current-layer="svg3745"
     fit-margin-top="0"
     fit-margin-left="0"
     fit-margin-right="0"
     fit-margin-bottom="0" />
  <defs
     id="defs826">
    <style
       type="text/css"
       id="style824"><![CDATA[
    .svglite line, .svglite polyline, .svglite polygon, .svglite path, .svglite rect, .svglite circle {
      fill: none;
      stroke: #000000;
      stroke-linecap: round;
      stroke-linejoin: round;
      stroke-miterlimit: 10.00;
    }
  ]]></style>
  </defs>
  <defs
     id="defs833">
    <clipPath
       id="cpMC4wMHw3MjAuMDB8MC4wMHwyNTIuMDA=">
      <rect
         x="0"
         y="0"
         width="720"
         height="252"
         id="rect830" />
    </clipPath>
  </defs>
  <defs
     id="defs842">
    <clipPath
       id="cpNTIuNTZ8MjIxLjg2fDM4LjQ3fDIxNy4yNg==">
      <rect
         x="52.560001"
         y="38.470001"
         width="169.31"
         height="178.8"
         id="rect839" />
    </clipPath>
  </defs>
  <g
     inkscape:groupmode="layer"
     id="layer4"
     inkscape:label="Background"
     transform="translate(42.586868,79.32164)"
     style="display:inline">
    <rect
       style="fill:#ffffff;fill-opacity:1;stroke:none;stroke-width:27.5514;stroke-miterlimit:10;stroke-dasharray:none;stroke-opacity:1"
       id="rect28606"
       width="267.4711"
       height="200.98851"
       x="-42.586868"
       y="-79.32164"
       ry="0" />
  </g>
  <g
     inkscape:groupmode="layer"
     id="layer2"
     inkscape:label="Layer 2"
     style="display:inline"
     sodipodi:insensitive="true"
     transform="translate(42.586868,79.32164)">
    <path
       style="fill:#e35950;fill-opacity:1;stroke:#ec7272;stroke-width:0.75;stroke-linecap:butt;stroke-linejoin:miter;stroke-miterlimit:10;stroke-dasharray:none;stroke-opacity:1"
       d="M 3.1625122,3.2361546 V 102.66013"
       id="path9580" />
    <rect
       x="-21.99008"
       y="-75.879387"
       width="169.31"
       height="178.8"
       style="fill:#ffffff;stroke:none;stroke-width:1.07"
       id="rect844" />
  </g>
  <g
     inkscape:groupmode="layer"
     id="layer3"
     inkscape:label="Hidden Points"
     style="display:none"
     transform="translate(42.586868,79.32164)">
    <ellipse
       cx="60.064495"
       cy="182.89395"
       style="display:inline;fill:#004c6d;stroke:#004c6d;stroke-width:0.9854"
       id="circle1556"
       rx="2.6698048"
       ry="2.7434602"
       transform="translate(-74.550081,-114.34939)" />
    <ellipse
       cx="96.962563"
       cy="162.08586"
       style="display:inline;fill:#004c6d;stroke:#004c6d;stroke-width:0.9854"
       id="circle1560"
       rx="2.6698048"
       ry="2.7434602"
       transform="translate(-74.550081,-114.34939)" />
    <ellipse
       cx="112.48853"
       cy="152.22348"
       style="display:inline;fill:#004c6d;stroke:#004c6d;stroke-width:0.9854"
       id="circle1562"
       rx="2.6698048"
       ry="2.7434602"
       transform="translate(-74.550081,-114.34939)" />
    <ellipse
       cx="127.17928"
       cy="139.0408"
       style="display:inline;fill:#004c6d;stroke:#004c6d;stroke-width:0.9854"
       id="circle1564"
       rx="2.6698048"
       ry="2.7434602"
       transform="translate(-74.550081,-114.34939)" />
    <ellipse
       cx="144.19754"
       cy="122.14391"
       style="display:inline;fill:#004c6d;stroke:#004c6d;stroke-width:0.9854"
       id="circle1566"
       rx="2.6698048"
       ry="2.7434602"
       transform="translate(-74.550081,-114.34939)" />
    <ellipse
       cx="214.11908"
       cy="72.846046"
       style="display:inline;fill:#004c6d;stroke:#004c6d;stroke-width:0.9854"
       id="circle1568"
       rx="2.6698048"
       ry="2.7434602"
       transform="translate(-74.550081,-114.34939)" />
    <ellipse
       cx="214.36551"
       cy="76.546196"
       style="display:inline;fill:#f8766d;stroke:#f8766d;stroke-width:0.9854"
       id="circle1586"
       rx="2.6698048"
       ry="2.7434602"
       transform="translate(-74.550081,-114.34939)" />
    <ellipse
       cx="93.211143"
       cy="117.64182"
       style="display:inline;fill:#f8766d;stroke:#f8766d;stroke-width:0.9854"
       id="circle1576"
       rx="2.6698048"
       ry="2.7434602"
       transform="translate(-74.550081,-114.34939)" />
    <ellipse
       cx="122.70222"
       cy="117.36043"
       style="display:inline;fill:#f8766d;stroke:#f8766d;stroke-width:0.9854"
       id="circle1580"
       rx="2.6698048"
       ry="2.7434602"
       transform="translate(-74.550081,-114.34939)" />
    <ellipse
       cx="137.54358"
       cy="116.72733"
       style="display:inline;fill:#f8766d;stroke:#f8766d;stroke-width:0.9854"
       id="circle1582"
       rx="2.6698048"
       ry="2.7434602"
       transform="translate(-74.550081,-114.34939)" />
    <ellipse
       cx="152.46713"
       cy="114.89836"
       style="display:inline;fill:#f8766d;stroke:#f8766d;stroke-width:0.9854"
       id="circle1584"
       rx="2.6698048"
       ry="2.7434602"
       transform="translate(-74.550081,-114.34939)" />
    <ellipse
       cx="107.90192"
       cy="117.5574"
       style="display:inline;fill:#f8766d;stroke:#f8766d;stroke-width:0.9854"
       id="circle1578"
       rx="2.6698048"
       ry="2.7434602"
       transform="translate(-74.550081,-114.34939)" />
  </g>
  <g
     clip-path="url(#cpMC4wMHw3MjAuMDB8MC4wMHwyNTIuMDA=)"
     id="g1728"
     transform="translate(-31.963213,-35.02775)" />
  <defs
     id="defs1733">
    <clipPath
       id="cpMjYwLjQyfDQyOS43M3wzOC40N3wyMTcuMjY=">
      <rect
         x="260.42001"
         y="38.470001"
         width="169.31"
         height="178.8"
         id="rect1730" />
    </clipPath>
  </defs>
  <g
     clip-path="url(#cpMC4wMHw3MjAuMDB8MC4wMHwyNTIuMDA=)"
     id="g2601"
     transform="translate(-31.963213,-35.02775)" />
  <defs
     id="defs2606">
    <clipPath
       id="cpNDY4LjI4fDYzNy41OXwzOC40N3wyMTcuMjY=">
      <rect
         x="468.28"
         y="38.470001"
         width="169.31"
         height="178.8"
         id="rect2603" />
    </clipPath>
  </defs>
  <g
     clip-path="url(#cpMC4wMHw3MjAuMDB8MC4wMHwyNTIuMDA=)"
     id="g3482"
     transform="translate(-31.963213,-35.02775)" />
  <defs
     id="defs3487">
    <clipPath
       id="cpNTIuNTZ8MjIxLjg2fDUuNDh8MzguNDc=">
      <rect
         x="52.560001"
         y="5.48"
         width="169.31"
         height="32.990002"
         id="rect3484" />
    </clipPath>
  </defs>
  <g
     clip-path="url(#cpMC4wMHw3MjAuMDB8MC4wMHwyNTIuMDA=)"
     id="g3495"
     transform="translate(-31.963213,-35.02775)" />
  <defs
     id="defs3500">
    <clipPath
       id="cpMjYwLjQyfDQyOS43M3w1LjQ4fDM4LjQ3">
      <rect
         x="260.42001"
         y="5.48"
         width="169.31"
         height="32.990002"
         id="rect3497" />
    </clipPath>
  </defs>
  <g
     clip-path="url(#cpMC4wMHw3MjAuMDB8MC4wMHwyNTIuMDA=)"
     id="g3510"
     transform="translate(-31.963213,-35.02775)" />
  <defs
     id="defs3515">
    <clipPath
       id="cpNDY4LjI4fDYzNy41OXw1LjQ4fDM4LjQ3">
      <rect
         x="468.28"
         y="5.48"
         width="169.31"
         height="32.990002"
         id="rect3512" />
    </clipPath>
  </defs>
  <polyline
     points="52.56,217.26 221.86,217.26 "
     style="stroke-width:1.07;stroke-linecap:butt"
     id="polyline3525"
     transform="translate(-31.963213,-35.02775)" />
  <polyline
     points="52.56,217.26 52.56,38.47 "
     style="stroke-width:1.07;stroke-linecap:butt"
     id="polyline3635"
     transform="translate(-31.963213,-35.02775)" />
  <text
     x="345.07001"
     y="243.87"
     text-anchor="middle"
     style="font-size:12px;font-family:Arial"
     textLength="136.74001"
     lengthAdjust="spacingAndGlyphs"
     id="text3649"
     transform="translate(-239.87885,-45.52775)">Fraction of reads mapped</text>
  <rect
     x="198.08615"
     y="18.501709"
     width="65.970001"
     height="27.200478"
     style="fill:#ffffff;stroke:none;stroke-width:0.467777"
     id="rect3653" />
  <g
     inkscape:groupmode="layer"
     id="layer1"
     inkscape:label="Layer 1"
     style="display:inline"
     transform="translate(-31.963213,-35.02775)">
    <polyline
       points="100.81,149.33 102.24,148.68 103.65,147.18 105.00,146.63 106.39,146.10 107.90,144.84 109.37,144.38 110.77,143.93 112.09,143.06 113.54,142.44 114.90,141.86 116.26,140.74 117.59,140.05 118.83,138.90 120.22,138.45 121.49,137.71 122.79,137.58 124.17,136.89 125.43,135.97 126.59,135.12 127.76,134.54 128.95,133.87 130.24,133.66 131.29,132.93 132.43,132.14 133.56,131.03 134.67,130.25 135.81,129.60 136.88,129.05 138.02,128.38 139.10,127.53 140.10,126.79 141.16,125.90 142.24,124.89 143.27,124.11 144.29,122.82 145.36,122.24 146.48,121.37 147.55,120.72 148.67,119.38 149.83,118.16 150.98,117.24 152.09,116.37 153.24,115.18 154.48,113.98 155.65,113.01 156.91,111.57 158.06,110.61 159.42,109.16 160.78,107.70 162.26,106.15 163.71,104.61 165.34,103.06 167.08,101.45 168.95,99.56 170.90,97.42 172.93,95.36 175.04,93.55 177.15,91.48 195.14,79.93 213.33,71.11 "
       style="stroke:#004c6d;stroke-width:1.07;stroke-linecap:butt"
       id="polyline1526"
       transform="matrix(1.3691306,0,0,1.4069026,-77.957556,-27.198802)" />
    <polyline
       points="113.70,102.91 114.83,102.92 116.03,102.92 117.14,102.93 118.27,102.90 119.40,102.92 120.49,102.91 121.61,102.92 122.78,102.92 123.88,102.93 125.02,102.95 126.19,102.93 127.33,102.93 128.42,102.94 129.49,102.92 130.55,102.90 131.58,102.90 132.63,102.91 133.68,102.88 134.71,102.88 135.75,102.89 136.81,102.86 137.89,102.87 138.90,102.86 140.02,102.83 141.08,102.81 142.17,102.81 143.29,102.80 144.39,102.82 145.43,102.80 146.56,102.75 147.69,102.70 148.85,102.71 149.94,102.69 150.96,102.63 152.04,102.60 153.19,102.53 154.21,102.49 155.28,102.43 156.38,102.37 157.40,102.30 158.48,102.23 159.50,102.19 160.60,102.09 161.69,102.00 162.91,101.84 163.90,101.72 164.90,101.55 166.00,101.34 167.16,101.20 168.30,101.00 169.49,100.77 170.78,100.57 172.10,100.30 173.49,100.01 174.95,99.72 176.60,99.21 178.24,98.78 179.82,98.29 194.58,86.71 213.51,73.74 "
       style="stroke:#f8766d;stroke-width:1.07;stroke-linecap:butt"
       id="polyline1570"
       transform="matrix(1.3691306,0,0,1.4069026,-77.957556,-27.198802)" />
    <ellipse
       cx="77.712585"
       cy="117.58555"
       style="fill:#e35950;fill-opacity:1;stroke:#e35950;stroke-width:1.40912;stroke-opacity:1"
       id="ellipse8075"
       rx="3.817821"
       ry="3.9231482" />
    <path
       style="fill:#ff0000;stroke:#ff0000;stroke-width:0.75px;stroke-linecap:butt;stroke-linejoin:miter;stroke-opacity:1"
       d="M 3.1625122,3.2361546 V 102.66013"
       id="path9796"
       transform="translate(74.550081,114.34939)" />
    <path
       style="fill:#ff0000;stroke:#ff0000;stroke-width:0.75px;stroke-linecap:butt;stroke-linejoin:miter;stroke-opacity:1"
       d="M 3.1625122,3.2361546 H 147.14574"
       id="path9798"
       transform="translate(74.550081,114.34939)" />
    <ellipse
       cx="77.712585"
       cy="117.58555"
       style="fill:#f8766d;stroke:#f8766d;stroke-width:0.9854"
       id="circle1574"
       rx="2.6698048"
       ry="2.7434602" />
    <ellipse
       cx="79.355545"
       cy="172.3844"
       style="display:inline;fill:#1d769c;fill-opacity:1;stroke:#1d769c;stroke-width:1.40912;stroke-opacity:1"
       id="ellipse8075-3"
       rx="3.817821"
       ry="3.9231482" />
    <ellipse
       cx="79.355545"
       cy="172.3844"
       style="fill:#004c6d;stroke:#004c6d;stroke-width:0.9854"
       id="circle1558"
       rx="2.6698048"
       ry="2.7434602" />
  </g>
  <g
     id="g14204"
     transform="translate(-30.913759,40.657248)">
    <line
       x1="236.19992"
       y1="-15.839386"
       x2="250.02994"
       y2="-15.839386"
       style="stroke:#f8766d;stroke-width:1.07;stroke-linecap:butt"
       id="line3659" />
    <circle
       cx="243.1199"
       cy="-15.839386"
       r="1.95"
       style="fill:#f8766d;stroke:#f8766d;stroke-width:0.71"
       id="circle3661" />
    <line
       x1="236.19992"
       y1="-15.839386"
       x2="250.02994"
       y2="-15.839386"
       style="stroke:#f8766d;stroke-width:1.07;stroke-linecap:butt"
       id="line3663" />
    <circle
       cx="243.1199"
       cy="-15.839386"
       r="1.95"
       style="fill:#f8766d;stroke:#f8766d;stroke-width:0.71"
       id="circle3665" />
    <line
       x1="236.19992"
       y1="-15.839386"
       x2="250.02994"
       y2="-15.839386"
       style="stroke:#f8766d;stroke-width:1.07;stroke-linecap:butt"
       id="line3667" />
    <circle
       cx="243.1199"
       cy="-15.839386"
       r="1.95"
       style="fill:#f8766d;stroke:#f8766d;stroke-width:0.71"
       id="circle3669" />
    <line
       x1="236.19992"
       y1="-1.499382"
       x2="250.02994"
       y2="-1.499382"
       style="stroke:#004c6d;stroke-width:1.07;stroke-linecap:butt"
       id="line3695" />
    <circle
       cx="243.1199"
       cy="-1.499382"
       r="1.95"
       style="fill:#004c6d;stroke:#004c6d;stroke-width:0.71"
       id="circle3697" />
    <line
       x1="236.19992"
       y1="-1.499382"
       x2="250.02994"
       y2="-1.499382"
       style="stroke:#004c6d;stroke-width:1.07;stroke-linecap:butt"
       id="line3699" />
    <circle
       cx="243.1199"
       cy="-1.499382"
       r="1.95"
       style="fill:#004c6d;stroke:#004c6d;stroke-width:0.71"
       id="circle3701" />
    <line
       x1="236.19992"
       y1="-1.499382"
       x2="250.02994"
       y2="-1.499382"
       style="stroke:#004c6d;stroke-width:1.07;stroke-linecap:butt"
       id="line3703" />
    <circle
       cx="243.1199"
       cy="-1.499382"
       r="1.95"
       style="fill:#004c6d;stroke:#004c6d;stroke-width:0.71"
       id="circle3705" />
    <text
       x="676.78998"
       y="101.66"
       style="font-size:8.8px;font-family:Arial"
       textLength="18.57"
       lengthAdjust="spacingAndGlyphs"
       id="text3731"
       transform="translate(-419.55008,-114.34939)">HPC</text>
    <text
       x="676.78998"
       y="101.66"
       style="font-size:8.8px;font-family:Arial"
       textLength="18.57"
       lengthAdjust="spacingAndGlyphs"
       id="text13409"
       transform="translate(-419.55008,-100.00978)">SSR</text>
  </g>
  <text
     xml:space="preserve"
     style="font-weight:bold;font-size:9px;line-height:1.25;font-family:'Fira Code';-inkscape-font-specification:'Fira Code, Bold';stroke-width:0.75"
     x="156.7373"
     y="33.805962"
     id="text15406"><tspan
       sodipodi:role="line"
       id="tspan15404"
       style="font-style:normal;font-variant:normal;font-weight:normal;font-stretch:normal;font-size:9px;font-family:Arial;-inkscape-font-specification:Arial;stroke-width:0.75"
       x="156.7373"
       y="33.805962">mapq=0</tspan></text>
  <text
     xml:space="preserve"
     style="font-weight:bold;font-size:9px;line-height:1.25;font-family:'Fira Code';-inkscape-font-specification:'Fira Code, Bold';stroke-width:0.75"
     x="30.442204"
     y="72.992073"
     id="text15406-8"><tspan
       sodipodi:role="line"
       id="tspan15404-0"
       style="font-style:normal;font-variant:normal;font-weight:normal;font-stretch:normal;font-size:9px;font-family:Arial;-inkscape-font-specification:Arial;stroke-width:0.75"
       x="30.442204"
       y="72.992073">mapq=60</tspan></text>
  <text
     xml:space="preserve"
     style="font-weight:bold;font-size:9px;line-height:1.25;font-family:'Fira Code';-inkscape-font-specification:'Fira Code, Bold';stroke-width:0.75"
     x="50.671394"
     y="148.4903"
     id="text15406-7"><tspan
       sodipodi:role="line"
       id="tspan15404-6"
       style="font-style:normal;font-variant:normal;font-weight:normal;font-stretch:normal;font-size:9px;font-family:Arial;-inkscape-font-specification:Arial;stroke-width:0.75"
       x="50.671394"
       y="148.4903">mapq=50</tspan></text>
  <text
     xml:space="preserve"
     style="font-weight:bold;font-size:9px;line-height:1.25;font-family:'Fira Code';-inkscape-font-specification:'Fira Code, Bold';stroke-width:0.75"
     x="139.22873"
     y="132.95718"
     id="text15406-6"><tspan
       sodipodi:role="line"
       id="tspan15404-5"
       style="font-style:normal;font-variant:normal;font-weight:normal;font-stretch:normal;font-size:9px;font-family:Arial;-inkscape-font-specification:Arial;text-align:center;text-anchor:middle;fill:#ff0000;fill-opacity:1;stroke-width:0.75"
       x="139.22873"
       y="132.95718">area of</tspan><tspan
       sodipodi:role="line"
       style="font-style:normal;font-variant:normal;font-weight:normal;font-stretch:normal;font-size:9px;font-family:Arial;-inkscape-font-specification:Arial;text-align:center;text-anchor:middle;fill:#ff0000;fill-opacity:1;stroke-width:0.75"
       x="139.22873"
       y="144.43896"
       id="tspan19449">domination</tspan></text>
  <text
     xml:space="preserve"
     style="font-weight:bold;font-size:12px;line-height:1.25;font-family:'Fira Code';-inkscape-font-specification:'Fira Code, Bold';stroke-width:0.75"
     x="-142.43686"
     y="13.418995"
     id="text31184"
     transform="rotate(-90)"><tspan
       sodipodi:role="line"
       id="tspan31182"
       style="font-style:normal;font-variant:normal;font-weight:normal;font-stretch:normal;font-size:12px;font-family:Arial;-inkscape-font-specification:Arial;stroke-width:0.75"
       x="-142.43686"
       y="13.418995">Mapping error rate</tspan></text>
</svg>
